<?xml version="1.0" encoding="UTF-8"?>
<!DOCTYPE svg PUBLIC "-//W3C//DTD SVG 1.1//EN" "http://www.w3.org/Graphics/SVG/1.1/DTD/svg11.dtd">
<svg xmlns="http://www.w3.org/2000/svg" version="1.1" width="2000px" height="826px" style="shape-rendering:geometricPrecision; text-rendering:geometricPrecision; image-rendering:optimizeQuality; fill-rule:evenodd; clip-rule:evenodd" xmlns:xlink="http://www.w3.org/1999/xlink">
<g><path style="opacity:0.983" fill="#000000" d="M 1938.5,-0.5 C 1939.5,-0.5 1940.5,-0.5 1941.5,-0.5C 1941.5,198.833 1941.5,398.167 1941.5,597.5C 1960.83,597.5 1980.17,597.5 1999.5,597.5C 1999.5,607.167 1999.5,616.833 1999.5,626.5C 1979.83,626.5 1960.17,626.5 1940.5,626.5C 1940.5,692.833 1940.5,759.167 1940.5,825.5C 1864.17,825.5 1787.83,825.5 1711.5,825.5C 1711.67,759.499 1711.5,693.499 1711,627.5C 1656.24,626.834 1601.4,626.501 1546.5,626.5C 1491.08,626.337 1435.75,626.837 1380.5,628C 1322.62,693.705 1264.96,759.538 1207.5,825.5C 1057.83,825.5 908.167,825.5 758.5,825.5C 752.534,704.226 802.534,614.726 908.5,557C 931.304,545.176 954.637,534.51 978.5,525C 1017.08,511.024 1055.75,497.357 1094.5,484C 1104.71,480.337 1112.87,474.17 1119,465.5C 1120.64,460.923 1121.98,456.256 1123,451.5C 1124.61,337.508 1124.95,223.508 1124,109.5C 1123.67,92.5 1123.33,75.5 1123,58.5C 1121.39,43.7243 1113.55,34.2243 1099.5,30C 1040.36,24.3065 983.023,31.9732 927.5,53C 892.844,67.8222 862.511,88.8222 836.5,116C 853.809,114.485 871.142,112.485 888.5,110C 956.798,102.554 1005.96,129.387 1036,190.5C 1054.52,238.929 1049.85,284.929 1022,328.5C 983.272,377.415 933.105,395.915 871.5,384C 827.316,371.479 795.816,344.313 777,302.5C 769.551,284.414 766.051,265.58 766.5,246C 767.998,146.615 814.332,77.6154 905.5,39C 1024.19,-11.1886 1142.19,-9.5219 1259.5,44C 1348.8,83.1839 1393.8,151.851 1394.5,250C 1394.57,289.534 1386.07,327.034 1369,362.5C 1346.45,402.375 1314.29,431.875 1272.5,451C 1252.13,459.791 1231.46,467.791 1210.5,475C 1122.9,501.401 1035.57,528.735 948.5,557C 923.745,568.846 918.245,586.68 932,610.5C 939.81,618.315 949.31,622.149 960.5,622C 1101.5,622.667 1242.5,622.667 1383.5,622C 1568.39,414.374 1753.39,206.874 1938.5,-0.5 Z M 1708.5,293.5 C 1709.5,394.665 1709.83,495.999 1709.5,597.5C 1619.17,597.667 1528.83,597.5 1438.5,597C 1528.62,495.896 1618.62,394.729 1708.5,293.5 Z"/></g>
<g><path style="opacity:0.981" fill="#000000" d="M 740.5,825.5 C 655.5,825.5 570.5,825.5 485.5,825.5C 459.909,767.534 434.243,709.701 408.5,652C 307.165,651.167 205.832,651.333 104.5,652.5C 78.5273,710.105 52.8606,767.772 27.5,825.5C 25.5,825.5 23.5,825.5 21.5,825.5C 14.3574,823.212 7.02411,821.212 -0.5,819.5C -0.5,818.167 -0.5,816.833 -0.5,815.5C 82.4043,643.818 163.404,471.151 242.5,297.5C 234.223,277.673 225.557,258.006 216.5,238.5C 247.809,228.759 273.309,210.759 293,184.5C 300.184,173.463 306.851,162.13 313,150.5C 326.375,118.937 340.041,87.6038 354,56.5C 359.598,46.2908 365.931,36.6241 373,27.5C 373.772,27.6448 374.439,27.9781 375,28.5C 495.006,286.836 614.673,545.169 734,803.5C 736.681,810.707 738.848,818.041 740.5,825.5 Z M 256.5,326.5 C 302.378,425.256 348.378,524.089 394.5,623C 302.832,623.833 211.165,623.667 119.5,622.5C 165.181,523.769 210.847,425.102 256.5,326.5 Z"/></g>
</svg>
